<mxfile host="app.diagrams.net" agent="Mozilla/5.0 (Windows NT 10.0; Win64; x64) AppleWebKit/537.36 (KHTML, like Gecko) Chrome/131.0.0.0 Safari/537.36" version="26.0.8" pages="2">
  <diagram name="Page-1" id="zz_zhBeKwCr2yOw3s6XT">
    <mxGraphModel dx="493" dy="771" grid="1" gridSize="10" guides="1" tooltips="1" connect="1" arrows="1" fold="1" page="1" pageScale="1" pageWidth="827" pageHeight="1169" math="0" shadow="0">
      <root>
        <mxCell id="0" />
        <mxCell id="1" parent="0" />
        <mxCell id="NOtdNy1OSSMwFn4SJHYx-1" value="main" style="rounded=1;whiteSpace=wrap;html=1;" vertex="1" parent="1">
          <mxGeometry x="70" y="50" width="120" height="60" as="geometry" />
        </mxCell>
        <mxCell id="NOtdNy1OSSMwFn4SJHYx-2" value="V1" style="rounded=0;whiteSpace=wrap;html=1;" vertex="1" parent="1">
          <mxGeometry x="20" y="200" width="120" height="60" as="geometry" />
        </mxCell>
        <mxCell id="NOtdNy1OSSMwFn4SJHYx-3" value="V2" style="rounded=0;whiteSpace=wrap;html=1;" vertex="1" parent="1">
          <mxGeometry x="170" y="200" width="120" height="60" as="geometry" />
        </mxCell>
        <mxCell id="NOtdNy1OSSMwFn4SJHYx-5" value="" style="endArrow=classic;html=1;rounded=0;exitX=0.25;exitY=1;exitDx=0;exitDy=0;entryX=0.5;entryY=0;entryDx=0;entryDy=0;" edge="1" parent="1" source="NOtdNy1OSSMwFn4SJHYx-1" target="NOtdNy1OSSMwFn4SJHYx-2">
          <mxGeometry width="50" height="50" relative="1" as="geometry">
            <mxPoint x="120" y="150" as="sourcePoint" />
            <mxPoint x="170" y="100" as="targetPoint" />
          </mxGeometry>
        </mxCell>
        <mxCell id="NOtdNy1OSSMwFn4SJHYx-6" value="" style="endArrow=classic;html=1;rounded=0;exitX=0.65;exitY=1.017;exitDx=0;exitDy=0;exitPerimeter=0;entryX=0.375;entryY=-0.067;entryDx=0;entryDy=0;entryPerimeter=0;" edge="1" parent="1" source="NOtdNy1OSSMwFn4SJHYx-1" target="NOtdNy1OSSMwFn4SJHYx-3">
          <mxGeometry width="50" height="50" relative="1" as="geometry">
            <mxPoint x="200" y="170" as="sourcePoint" />
            <mxPoint x="250" y="120" as="targetPoint" />
          </mxGeometry>
        </mxCell>
        <mxCell id="NOtdNy1OSSMwFn4SJHYx-7" value="" style="endArrow=classic;html=1;rounded=0;exitX=0.992;exitY=0.9;exitDx=0;exitDy=0;exitPerimeter=0;entryX=0.25;entryY=0;entryDx=0;entryDy=0;" edge="1" parent="1" source="NOtdNy1OSSMwFn4SJHYx-1">
          <mxGeometry width="50" height="50" relative="1" as="geometry">
            <mxPoint x="190" y="130" as="sourcePoint" />
            <mxPoint x="340" y="200" as="targetPoint" />
          </mxGeometry>
        </mxCell>
        <mxCell id="NOtdNy1OSSMwFn4SJHYx-8" value="a" style="rounded=0;whiteSpace=wrap;html=1;" vertex="1" parent="1">
          <mxGeometry x="290" y="300" width="60" height="60" as="geometry" />
        </mxCell>
        <mxCell id="NOtdNy1OSSMwFn4SJHYx-9" value="b" style="rounded=0;whiteSpace=wrap;html=1;" vertex="1" parent="1">
          <mxGeometry x="390" y="380" width="56" height="60" as="geometry" />
        </mxCell>
        <mxCell id="NOtdNy1OSSMwFn4SJHYx-10" value="" style="endArrow=classic;html=1;rounded=0;entryX=0.5;entryY=0;entryDx=0;entryDy=0;" edge="1" parent="1" target="NOtdNy1OSSMwFn4SJHYx-8">
          <mxGeometry width="50" height="50" relative="1" as="geometry">
            <mxPoint x="330" y="260" as="sourcePoint" />
            <mxPoint x="380" y="260" as="targetPoint" />
          </mxGeometry>
        </mxCell>
        <mxCell id="NOtdNy1OSSMwFn4SJHYx-11" value="" style="endArrow=classic;html=1;rounded=0;exitX=0.75;exitY=1;exitDx=0;exitDy=0;entryX=0.5;entryY=0;entryDx=0;entryDy=0;" edge="1" parent="1" target="NOtdNy1OSSMwFn4SJHYx-9">
          <mxGeometry width="50" height="50" relative="1" as="geometry">
            <mxPoint x="400" y="260" as="sourcePoint" />
            <mxPoint x="430" y="250" as="targetPoint" />
          </mxGeometry>
        </mxCell>
        <mxCell id="NOtdNy1OSSMwFn4SJHYx-12" value="" style="endArrow=none;dashed=1;html=1;dashPattern=1 3;strokeWidth=2;rounded=0;exitX=0;exitY=0.5;exitDx=0;exitDy=0;entryX=0.5;entryY=1;entryDx=0;entryDy=0;" edge="1" parent="1" source="NOtdNy1OSSMwFn4SJHYx-8" target="NOtdNy1OSSMwFn4SJHYx-3">
          <mxGeometry width="50" height="50" relative="1" as="geometry">
            <mxPoint x="290" y="380" as="sourcePoint" />
            <mxPoint x="340" y="330" as="targetPoint" />
          </mxGeometry>
        </mxCell>
        <mxCell id="NOtdNy1OSSMwFn4SJHYx-13" value="" style="endArrow=none;dashed=1;html=1;dashPattern=1 3;strokeWidth=2;rounded=0;" edge="1" parent="1">
          <mxGeometry width="50" height="50" relative="1" as="geometry">
            <mxPoint x="390" y="420" as="sourcePoint" />
            <mxPoint x="120" y="260" as="targetPoint" />
          </mxGeometry>
        </mxCell>
        <mxCell id="NOtdNy1OSSMwFn4SJHYx-14" value="get_max" style="rounded=1;whiteSpace=wrap;html=1;" vertex="1" parent="1">
          <mxGeometry x="310" y="200" width="120" height="60" as="geometry" />
        </mxCell>
        <mxCell id="NOtdNy1OSSMwFn4SJHYx-28" value="main" style="rounded=1;whiteSpace=wrap;html=1;" vertex="1" parent="1">
          <mxGeometry x="67" y="380" width="120" height="60" as="geometry" />
        </mxCell>
        <mxCell id="NOtdNy1OSSMwFn4SJHYx-29" value="V1" style="rounded=0;whiteSpace=wrap;html=1;" vertex="1" parent="1">
          <mxGeometry x="17" y="530" width="120" height="60" as="geometry" />
        </mxCell>
        <mxCell id="NOtdNy1OSSMwFn4SJHYx-30" value="V2" style="rounded=0;whiteSpace=wrap;html=1;" vertex="1" parent="1">
          <mxGeometry x="167" y="530" width="120" height="60" as="geometry" />
        </mxCell>
        <mxCell id="NOtdNy1OSSMwFn4SJHYx-31" value="" style="endArrow=classic;html=1;rounded=0;exitX=0.25;exitY=1;exitDx=0;exitDy=0;entryX=0.5;entryY=0;entryDx=0;entryDy=0;" edge="1" parent="1" source="NOtdNy1OSSMwFn4SJHYx-28" target="NOtdNy1OSSMwFn4SJHYx-29">
          <mxGeometry width="50" height="50" relative="1" as="geometry">
            <mxPoint x="117" y="480" as="sourcePoint" />
            <mxPoint x="167" y="430" as="targetPoint" />
          </mxGeometry>
        </mxCell>
        <mxCell id="NOtdNy1OSSMwFn4SJHYx-32" value="" style="endArrow=classic;html=1;rounded=0;exitX=0.65;exitY=1.017;exitDx=0;exitDy=0;exitPerimeter=0;entryX=0.375;entryY=-0.067;entryDx=0;entryDy=0;entryPerimeter=0;" edge="1" parent="1" source="NOtdNy1OSSMwFn4SJHYx-28" target="NOtdNy1OSSMwFn4SJHYx-30">
          <mxGeometry width="50" height="50" relative="1" as="geometry">
            <mxPoint x="197" y="500" as="sourcePoint" />
            <mxPoint x="247" y="450" as="targetPoint" />
          </mxGeometry>
        </mxCell>
        <mxCell id="NOtdNy1OSSMwFn4SJHYx-33" value="" style="endArrow=classic;html=1;rounded=0;exitX=0.992;exitY=0.9;exitDx=0;exitDy=0;exitPerimeter=0;entryX=0.25;entryY=0;entryDx=0;entryDy=0;" edge="1" parent="1" source="NOtdNy1OSSMwFn4SJHYx-28">
          <mxGeometry width="50" height="50" relative="1" as="geometry">
            <mxPoint x="187" y="460" as="sourcePoint" />
            <mxPoint x="337" y="530" as="targetPoint" />
          </mxGeometry>
        </mxCell>
        <mxCell id="NOtdNy1OSSMwFn4SJHYx-42" value="max" style="rounded=0;whiteSpace=wrap;html=1;" vertex="1" parent="1">
          <mxGeometry x="320" y="530" width="120" height="60" as="geometry" />
        </mxCell>
        <mxCell id="NOtdNy1OSSMwFn4SJHYx-43" value="" style="endArrow=none;dashed=1;html=1;rounded=0;exitX=1;exitY=0.5;exitDx=0;exitDy=0;entryX=0;entryY=0.5;entryDx=0;entryDy=0;" edge="1" parent="1" source="NOtdNy1OSSMwFn4SJHYx-30" target="NOtdNy1OSSMwFn4SJHYx-42">
          <mxGeometry width="50" height="50" relative="1" as="geometry">
            <mxPoint x="310" y="600" as="sourcePoint" />
            <mxPoint x="360" y="550" as="targetPoint" />
          </mxGeometry>
        </mxCell>
        <mxCell id="NOtdNy1OSSMwFn4SJHYx-44" value="main" style="rounded=1;whiteSpace=wrap;html=1;" vertex="1" parent="1">
          <mxGeometry x="70" y="620" width="120" height="60" as="geometry" />
        </mxCell>
        <mxCell id="NOtdNy1OSSMwFn4SJHYx-45" value="V1" style="rounded=0;whiteSpace=wrap;html=1;" vertex="1" parent="1">
          <mxGeometry x="20" y="770" width="120" height="60" as="geometry" />
        </mxCell>
        <mxCell id="NOtdNy1OSSMwFn4SJHYx-46" value="V2" style="rounded=0;whiteSpace=wrap;html=1;" vertex="1" parent="1">
          <mxGeometry x="170" y="770" width="120" height="60" as="geometry" />
        </mxCell>
        <mxCell id="NOtdNy1OSSMwFn4SJHYx-47" value="" style="endArrow=classic;html=1;rounded=0;exitX=0.25;exitY=1;exitDx=0;exitDy=0;entryX=0.5;entryY=0;entryDx=0;entryDy=0;" edge="1" parent="1" source="NOtdNy1OSSMwFn4SJHYx-44" target="NOtdNy1OSSMwFn4SJHYx-45">
          <mxGeometry width="50" height="50" relative="1" as="geometry">
            <mxPoint x="120" y="720" as="sourcePoint" />
            <mxPoint x="170" y="670" as="targetPoint" />
          </mxGeometry>
        </mxCell>
        <mxCell id="NOtdNy1OSSMwFn4SJHYx-48" value="" style="endArrow=classic;html=1;rounded=0;exitX=0.65;exitY=1.017;exitDx=0;exitDy=0;exitPerimeter=0;entryX=0.375;entryY=-0.067;entryDx=0;entryDy=0;entryPerimeter=0;" edge="1" parent="1" source="NOtdNy1OSSMwFn4SJHYx-44" target="NOtdNy1OSSMwFn4SJHYx-46">
          <mxGeometry width="50" height="50" relative="1" as="geometry">
            <mxPoint x="200" y="740" as="sourcePoint" />
            <mxPoint x="250" y="690" as="targetPoint" />
          </mxGeometry>
        </mxCell>
        <mxCell id="NOtdNy1OSSMwFn4SJHYx-49" value="" style="endArrow=classic;html=1;rounded=0;exitX=0.992;exitY=0.9;exitDx=0;exitDy=0;exitPerimeter=0;entryX=0.25;entryY=0;entryDx=0;entryDy=0;" edge="1" parent="1" source="NOtdNy1OSSMwFn4SJHYx-44">
          <mxGeometry width="50" height="50" relative="1" as="geometry">
            <mxPoint x="190" y="700" as="sourcePoint" />
            <mxPoint x="340" y="770" as="targetPoint" />
          </mxGeometry>
        </mxCell>
        <mxCell id="NOtdNy1OSSMwFn4SJHYx-50" value="a" style="rounded=0;whiteSpace=wrap;html=1;" vertex="1" parent="1">
          <mxGeometry x="290" y="870" width="60" height="60" as="geometry" />
        </mxCell>
        <mxCell id="NOtdNy1OSSMwFn4SJHYx-51" value="b" style="rounded=0;whiteSpace=wrap;html=1;" vertex="1" parent="1">
          <mxGeometry x="390" y="950" width="56" height="60" as="geometry" />
        </mxCell>
        <mxCell id="NOtdNy1OSSMwFn4SJHYx-52" value="" style="endArrow=classic;html=1;rounded=0;entryX=0.5;entryY=0;entryDx=0;entryDy=0;" edge="1" parent="1" target="NOtdNy1OSSMwFn4SJHYx-50">
          <mxGeometry width="50" height="50" relative="1" as="geometry">
            <mxPoint x="330" y="830" as="sourcePoint" />
            <mxPoint x="380" y="830" as="targetPoint" />
          </mxGeometry>
        </mxCell>
        <mxCell id="NOtdNy1OSSMwFn4SJHYx-53" value="" style="endArrow=classic;html=1;rounded=0;exitX=0.75;exitY=1;exitDx=0;exitDy=0;entryX=0.5;entryY=0;entryDx=0;entryDy=0;" edge="1" parent="1" target="NOtdNy1OSSMwFn4SJHYx-51">
          <mxGeometry width="50" height="50" relative="1" as="geometry">
            <mxPoint x="400" y="830" as="sourcePoint" />
            <mxPoint x="430" y="820" as="targetPoint" />
          </mxGeometry>
        </mxCell>
        <mxCell id="NOtdNy1OSSMwFn4SJHYx-56" value="get_max" style="rounded=1;whiteSpace=wrap;html=1;" vertex="1" parent="1">
          <mxGeometry x="310" y="770" width="120" height="60" as="geometry" />
        </mxCell>
        <mxCell id="NOtdNy1OSSMwFn4SJHYx-58" value="max" style="rounded=0;whiteSpace=wrap;html=1;" vertex="1" parent="1">
          <mxGeometry x="446" y="770" width="120" height="60" as="geometry" />
        </mxCell>
        <mxCell id="NOtdNy1OSSMwFn4SJHYx-59" value="" style="endArrow=classic;html=1;rounded=0;exitX=1;exitY=0.5;exitDx=0;exitDy=0;entryX=0.25;entryY=0;entryDx=0;entryDy=0;" edge="1" parent="1" source="NOtdNy1OSSMwFn4SJHYx-44" target="NOtdNy1OSSMwFn4SJHYx-58">
          <mxGeometry width="50" height="50" relative="1" as="geometry">
            <mxPoint x="190" y="680" as="sourcePoint" />
            <mxPoint x="240" y="630" as="targetPoint" />
          </mxGeometry>
        </mxCell>
        <mxCell id="NOtdNy1OSSMwFn4SJHYx-61" value="" style="endArrow=none;dashed=1;html=1;dashPattern=1 3;strokeWidth=2;rounded=0;exitX=0.893;exitY=-0.033;exitDx=0;exitDy=0;exitPerimeter=0;entryX=0.442;entryY=1;entryDx=0;entryDy=0;entryPerimeter=0;" edge="1" parent="1" source="NOtdNy1OSSMwFn4SJHYx-51" target="NOtdNy1OSSMwFn4SJHYx-58">
          <mxGeometry width="50" height="50" relative="1" as="geometry">
            <mxPoint x="470" y="880" as="sourcePoint" />
            <mxPoint x="520" y="830" as="targetPoint" />
          </mxGeometry>
        </mxCell>
      </root>
    </mxGraphModel>
  </diagram>
  <diagram id="vfW-WlyczcyGEIMBw13F" name="Page-2">
    <mxGraphModel dx="493" dy="771" grid="1" gridSize="10" guides="1" tooltips="1" connect="1" arrows="1" fold="1" page="1" pageScale="1" pageWidth="827" pageHeight="1169" math="0" shadow="0">
      <root>
        <mxCell id="0" />
        <mxCell id="1" parent="0" />
        <mxCell id="PZf5R8o61nO2PQu2csCx-1" value="main" style="rounded=1;whiteSpace=wrap;html=1;" vertex="1" parent="1">
          <mxGeometry x="150" y="60" width="120" height="60" as="geometry" />
        </mxCell>
        <mxCell id="PZf5R8o61nO2PQu2csCx-2" value="" style="endArrow=classic;html=1;rounded=0;exitX=0.5;exitY=1;exitDx=0;exitDy=0;" edge="1" parent="1" source="PZf5R8o61nO2PQu2csCx-1">
          <mxGeometry width="50" height="50" relative="1" as="geometry">
            <mxPoint x="230" y="270" as="sourcePoint" />
            <mxPoint x="210" y="200" as="targetPoint" />
          </mxGeometry>
        </mxCell>
        <mxCell id="PZf5R8o61nO2PQu2csCx-3" value="many_animals" style="rounded=0;whiteSpace=wrap;html=1;" vertex="1" parent="1">
          <mxGeometry x="150" y="200" width="120" height="60" as="geometry" />
        </mxCell>
        <mxCell id="PZf5R8o61nO2PQu2csCx-4" value="animals" style="rounded=0;whiteSpace=wrap;html=1;" vertex="1" parent="1">
          <mxGeometry x="150" y="300" width="120" height="60" as="geometry" />
        </mxCell>
        <mxCell id="PZf5R8o61nO2PQu2csCx-5" value="" style="endArrow=classic;html=1;rounded=0;exitX=0.5;exitY=1;exitDx=0;exitDy=0;entryX=0.5;entryY=0;entryDx=0;entryDy=0;" edge="1" parent="1" source="PZf5R8o61nO2PQu2csCx-3" target="PZf5R8o61nO2PQu2csCx-4">
          <mxGeometry width="50" height="50" relative="1" as="geometry">
            <mxPoint x="230" y="320" as="sourcePoint" />
            <mxPoint x="280" y="270" as="targetPoint" />
          </mxGeometry>
        </mxCell>
        <mxCell id="PZf5R8o61nO2PQu2csCx-6" value="animals[0]" style="rounded=0;whiteSpace=wrap;html=1;" vertex="1" parent="1">
          <mxGeometry x="90" y="390" width="60" height="60" as="geometry" />
        </mxCell>
        <mxCell id="PZf5R8o61nO2PQu2csCx-7" value="animals[0]" style="rounded=0;whiteSpace=wrap;html=1;" vertex="1" parent="1">
          <mxGeometry x="180" y="390" width="60" height="60" as="geometry" />
        </mxCell>
        <mxCell id="PZf5R8o61nO2PQu2csCx-8" value="animals[0]" style="rounded=0;whiteSpace=wrap;html=1;" vertex="1" parent="1">
          <mxGeometry x="270" y="390" width="60" height="60" as="geometry" />
        </mxCell>
        <mxCell id="PZf5R8o61nO2PQu2csCx-9" value="" style="endArrow=classic;html=1;rounded=0;exitX=0;exitY=1;exitDx=0;exitDy=0;entryX=0.5;entryY=0;entryDx=0;entryDy=0;" edge="1" parent="1" source="PZf5R8o61nO2PQu2csCx-4" target="PZf5R8o61nO2PQu2csCx-6">
          <mxGeometry width="50" height="50" relative="1" as="geometry">
            <mxPoint x="60" y="390" as="sourcePoint" />
            <mxPoint x="110" y="340" as="targetPoint" />
          </mxGeometry>
        </mxCell>
        <mxCell id="PZf5R8o61nO2PQu2csCx-10" value="" style="endArrow=classic;html=1;rounded=0;entryX=0.5;entryY=0;entryDx=0;entryDy=0;exitX=0.5;exitY=1;exitDx=0;exitDy=0;" edge="1" parent="1" source="PZf5R8o61nO2PQu2csCx-4" target="PZf5R8o61nO2PQu2csCx-7">
          <mxGeometry width="50" height="50" relative="1" as="geometry">
            <mxPoint x="160" y="370" as="sourcePoint" />
            <mxPoint x="130" y="400" as="targetPoint" />
          </mxGeometry>
        </mxCell>
        <mxCell id="PZf5R8o61nO2PQu2csCx-11" value="" style="endArrow=classic;html=1;rounded=0;exitX=1;exitY=1;exitDx=0;exitDy=0;entryX=0.5;entryY=0;entryDx=0;entryDy=0;" edge="1" parent="1" source="PZf5R8o61nO2PQu2csCx-4" target="PZf5R8o61nO2PQu2csCx-8">
          <mxGeometry width="50" height="50" relative="1" as="geometry">
            <mxPoint x="170" y="380" as="sourcePoint" />
            <mxPoint x="140" y="410" as="targetPoint" />
          </mxGeometry>
        </mxCell>
        <mxCell id="PZf5R8o61nO2PQu2csCx-12" value="" style="endArrow=classic;html=1;rounded=0;exitX=0.5;exitY=1;exitDx=0;exitDy=0;" edge="1" parent="1" source="PZf5R8o61nO2PQu2csCx-6">
          <mxGeometry width="50" height="50" relative="1" as="geometry">
            <mxPoint x="130" y="570" as="sourcePoint" />
            <mxPoint x="120" y="490" as="targetPoint" />
          </mxGeometry>
        </mxCell>
        <mxCell id="PZf5R8o61nO2PQu2csCx-13" value="dog" style="rounded=0;whiteSpace=wrap;html=1;" vertex="1" parent="1">
          <mxGeometry x="90" y="490" width="60" height="60" as="geometry" />
        </mxCell>
        <mxCell id="PZf5R8o61nO2PQu2csCx-15" value="mouse" style="rounded=0;whiteSpace=wrap;html=1;" vertex="1" parent="1">
          <mxGeometry x="270" y="490" width="60" height="60" as="geometry" />
        </mxCell>
        <mxCell id="PZf5R8o61nO2PQu2csCx-16" value="" style="endArrow=classic;html=1;rounded=0;exitX=0.5;exitY=1;exitDx=0;exitDy=0;" edge="1" parent="1">
          <mxGeometry width="50" height="50" relative="1" as="geometry">
            <mxPoint x="210" y="450" as="sourcePoint" />
            <mxPoint x="210" y="490" as="targetPoint" />
          </mxGeometry>
        </mxCell>
        <mxCell id="PZf5R8o61nO2PQu2csCx-17" value="cat" style="rounded=0;whiteSpace=wrap;html=1;" vertex="1" parent="1">
          <mxGeometry x="180" y="490" width="60" height="60" as="geometry" />
        </mxCell>
        <mxCell id="PZf5R8o61nO2PQu2csCx-18" value="" style="endArrow=classic;html=1;rounded=0;exitX=0.5;exitY=1;exitDx=0;exitDy=0;entryX=0.5;entryY=0;entryDx=0;entryDy=0;" edge="1" parent="1" source="PZf5R8o61nO2PQu2csCx-8" target="PZf5R8o61nO2PQu2csCx-15">
          <mxGeometry width="50" height="50" relative="1" as="geometry">
            <mxPoint x="390" y="510" as="sourcePoint" />
            <mxPoint x="440" y="460" as="targetPoint" />
          </mxGeometry>
        </mxCell>
        <mxCell id="PZf5R8o61nO2PQu2csCx-19" value="" style="endArrow=classic;html=1;rounded=0;exitX=0.5;exitY=1;exitDx=0;exitDy=0;" edge="1" parent="1">
          <mxGeometry width="50" height="50" relative="1" as="geometry">
            <mxPoint x="120" y="550" as="sourcePoint" />
            <mxPoint x="120" y="590" as="targetPoint" />
          </mxGeometry>
        </mxCell>
        <mxCell id="PZf5R8o61nO2PQu2csCx-20" value="name" style="rounded=0;whiteSpace=wrap;html=1;" vertex="1" parent="1">
          <mxGeometry x="90" y="590" width="60" height="60" as="geometry" />
        </mxCell>
        <mxCell id="PZf5R8o61nO2PQu2csCx-21" value="name" style="rounded=0;whiteSpace=wrap;html=1;" vertex="1" parent="1">
          <mxGeometry x="270" y="590" width="60" height="60" as="geometry" />
        </mxCell>
        <mxCell id="PZf5R8o61nO2PQu2csCx-22" value="" style="endArrow=classic;html=1;rounded=0;exitX=0.5;exitY=1;exitDx=0;exitDy=0;" edge="1" parent="1">
          <mxGeometry width="50" height="50" relative="1" as="geometry">
            <mxPoint x="210" y="550" as="sourcePoint" />
            <mxPoint x="210" y="590" as="targetPoint" />
          </mxGeometry>
        </mxCell>
        <mxCell id="PZf5R8o61nO2PQu2csCx-23" value="name" style="rounded=0;whiteSpace=wrap;html=1;" vertex="1" parent="1">
          <mxGeometry x="180" y="590" width="60" height="60" as="geometry" />
        </mxCell>
        <mxCell id="PZf5R8o61nO2PQu2csCx-24" value="" style="endArrow=classic;html=1;rounded=0;exitX=0.5;exitY=1;exitDx=0;exitDy=0;entryX=0.5;entryY=0;entryDx=0;entryDy=0;" edge="1" parent="1" target="PZf5R8o61nO2PQu2csCx-21">
          <mxGeometry width="50" height="50" relative="1" as="geometry">
            <mxPoint x="300" y="550" as="sourcePoint" />
            <mxPoint x="440" y="560" as="targetPoint" />
          </mxGeometry>
        </mxCell>
        <mxCell id="PZf5R8o61nO2PQu2csCx-31" value="" style="endArrow=classic;html=1;rounded=0;exitX=0.5;exitY=1;exitDx=0;exitDy=0;" edge="1" parent="1">
          <mxGeometry width="50" height="50" relative="1" as="geometry">
            <mxPoint x="120" y="650" as="sourcePoint" />
            <mxPoint x="120" y="690" as="targetPoint" />
          </mxGeometry>
        </mxCell>
        <mxCell id="PZf5R8o61nO2PQu2csCx-32" value="str buffer dog" style="rounded=0;whiteSpace=wrap;html=1;" vertex="1" parent="1">
          <mxGeometry x="90" y="690" width="60" height="60" as="geometry" />
        </mxCell>
        <mxCell id="PZf5R8o61nO2PQu2csCx-33" value="str buffer mouse" style="rounded=0;whiteSpace=wrap;html=1;" vertex="1" parent="1">
          <mxGeometry x="270" y="690" width="60" height="60" as="geometry" />
        </mxCell>
        <mxCell id="PZf5R8o61nO2PQu2csCx-34" value="" style="endArrow=classic;html=1;rounded=0;exitX=0.5;exitY=1;exitDx=0;exitDy=0;" edge="1" parent="1">
          <mxGeometry width="50" height="50" relative="1" as="geometry">
            <mxPoint x="210" y="650" as="sourcePoint" />
            <mxPoint x="210" y="690" as="targetPoint" />
          </mxGeometry>
        </mxCell>
        <mxCell id="PZf5R8o61nO2PQu2csCx-35" value="str buffer cat" style="rounded=0;whiteSpace=wrap;html=1;" vertex="1" parent="1">
          <mxGeometry x="180" y="690" width="60" height="60" as="geometry" />
        </mxCell>
        <mxCell id="PZf5R8o61nO2PQu2csCx-36" value="" style="endArrow=classic;html=1;rounded=0;exitX=0.5;exitY=1;exitDx=0;exitDy=0;entryX=0.5;entryY=0;entryDx=0;entryDy=0;" edge="1" parent="1" target="PZf5R8o61nO2PQu2csCx-33">
          <mxGeometry width="50" height="50" relative="1" as="geometry">
            <mxPoint x="300" y="650" as="sourcePoint" />
            <mxPoint x="440" y="660" as="targetPoint" />
          </mxGeometry>
        </mxCell>
        <mxCell id="PZf5R8o61nO2PQu2csCx-37" value="main" style="rounded=1;whiteSpace=wrap;html=1;" vertex="1" parent="1">
          <mxGeometry x="150" y="810" width="120" height="60" as="geometry" />
        </mxCell>
        <mxCell id="PZf5R8o61nO2PQu2csCx-38" value="" style="endArrow=classic;html=1;rounded=0;exitX=0.5;exitY=1;exitDx=0;exitDy=0;" edge="1" parent="1" source="PZf5R8o61nO2PQu2csCx-37">
          <mxGeometry width="50" height="50" relative="1" as="geometry">
            <mxPoint x="230" y="1020" as="sourcePoint" />
            <mxPoint x="210" y="950" as="targetPoint" />
          </mxGeometry>
        </mxCell>
        <mxCell id="PZf5R8o61nO2PQu2csCx-39" value="many_animals" style="rounded=0;whiteSpace=wrap;html=1;" vertex="1" parent="1">
          <mxGeometry x="150" y="950" width="120" height="60" as="geometry" />
        </mxCell>
        <mxCell id="PZf5R8o61nO2PQu2csCx-40" value="animals" style="rounded=0;whiteSpace=wrap;html=1;" vertex="1" parent="1">
          <mxGeometry x="150" y="1050" width="120" height="60" as="geometry" />
        </mxCell>
        <mxCell id="PZf5R8o61nO2PQu2csCx-41" value="" style="endArrow=classic;html=1;rounded=0;exitX=0.5;exitY=1;exitDx=0;exitDy=0;entryX=0.5;entryY=0;entryDx=0;entryDy=0;" edge="1" parent="1" source="PZf5R8o61nO2PQu2csCx-39" target="PZf5R8o61nO2PQu2csCx-40">
          <mxGeometry width="50" height="50" relative="1" as="geometry">
            <mxPoint x="230" y="1070" as="sourcePoint" />
            <mxPoint x="280" y="1020" as="targetPoint" />
          </mxGeometry>
        </mxCell>
        <mxCell id="PZf5R8o61nO2PQu2csCx-42" value="animals[0]" style="rounded=0;whiteSpace=wrap;html=1;" vertex="1" parent="1">
          <mxGeometry x="90" y="1140" width="60" height="60" as="geometry" />
        </mxCell>
        <mxCell id="PZf5R8o61nO2PQu2csCx-43" value="animals[0]" style="rounded=0;whiteSpace=wrap;html=1;" vertex="1" parent="1">
          <mxGeometry x="180" y="1140" width="60" height="60" as="geometry" />
        </mxCell>
        <mxCell id="PZf5R8o61nO2PQu2csCx-44" value="animals[0]" style="rounded=0;whiteSpace=wrap;html=1;" vertex="1" parent="1">
          <mxGeometry x="270" y="1140" width="60" height="60" as="geometry" />
        </mxCell>
        <mxCell id="PZf5R8o61nO2PQu2csCx-45" value="" style="endArrow=classic;html=1;rounded=0;exitX=0;exitY=1;exitDx=0;exitDy=0;entryX=0.5;entryY=0;entryDx=0;entryDy=0;" edge="1" parent="1" source="PZf5R8o61nO2PQu2csCx-40" target="PZf5R8o61nO2PQu2csCx-42">
          <mxGeometry width="50" height="50" relative="1" as="geometry">
            <mxPoint x="60" y="1140" as="sourcePoint" />
            <mxPoint x="110" y="1090" as="targetPoint" />
          </mxGeometry>
        </mxCell>
        <mxCell id="PZf5R8o61nO2PQu2csCx-46" value="" style="endArrow=classic;html=1;rounded=0;entryX=0.5;entryY=0;entryDx=0;entryDy=0;exitX=0.5;exitY=1;exitDx=0;exitDy=0;" edge="1" parent="1" source="PZf5R8o61nO2PQu2csCx-40" target="PZf5R8o61nO2PQu2csCx-43">
          <mxGeometry width="50" height="50" relative="1" as="geometry">
            <mxPoint x="160" y="1120" as="sourcePoint" />
            <mxPoint x="130" y="1150" as="targetPoint" />
          </mxGeometry>
        </mxCell>
        <mxCell id="PZf5R8o61nO2PQu2csCx-47" value="" style="endArrow=classic;html=1;rounded=0;exitX=1;exitY=1;exitDx=0;exitDy=0;entryX=0.5;entryY=0;entryDx=0;entryDy=0;" edge="1" parent="1" source="PZf5R8o61nO2PQu2csCx-40" target="PZf5R8o61nO2PQu2csCx-44">
          <mxGeometry width="50" height="50" relative="1" as="geometry">
            <mxPoint x="170" y="1130" as="sourcePoint" />
            <mxPoint x="140" y="1160" as="targetPoint" />
          </mxGeometry>
        </mxCell>
        <mxCell id="PZf5R8o61nO2PQu2csCx-66" value="" style="endArrow=classic;html=1;rounded=0;exitX=1;exitY=1;exitDx=0;exitDy=0;" edge="1" parent="1" source="PZf5R8o61nO2PQu2csCx-37">
          <mxGeometry width="50" height="50" relative="1" as="geometry">
            <mxPoint x="330" y="930" as="sourcePoint" />
            <mxPoint x="420" y="950" as="targetPoint" />
          </mxGeometry>
        </mxCell>
        <mxCell id="PZf5R8o61nO2PQu2csCx-67" value="many_animas ~Animal" style="rounded=1;whiteSpace=wrap;html=1;" vertex="1" parent="1">
          <mxGeometry x="354" y="950" width="120" height="60" as="geometry" />
        </mxCell>
        <mxCell id="PZf5R8o61nO2PQu2csCx-68" value="main" style="rounded=1;whiteSpace=wrap;html=1;" vertex="1" parent="1">
          <mxGeometry x="150" y="1280" width="120" height="60" as="geometry" />
        </mxCell>
        <mxCell id="PZf5R8o61nO2PQu2csCx-69" value="" style="endArrow=classic;html=1;rounded=0;exitX=0.5;exitY=1;exitDx=0;exitDy=0;" edge="1" parent="1" source="PZf5R8o61nO2PQu2csCx-68">
          <mxGeometry width="50" height="50" relative="1" as="geometry">
            <mxPoint x="230" y="1490" as="sourcePoint" />
            <mxPoint x="210" y="1420" as="targetPoint" />
          </mxGeometry>
        </mxCell>
        <mxCell id="PZf5R8o61nO2PQu2csCx-70" value="many_animals" style="rounded=0;whiteSpace=wrap;html=1;" vertex="1" parent="1">
          <mxGeometry x="150" y="1420" width="120" height="60" as="geometry" />
        </mxCell>
        <mxCell id="PZf5R8o61nO2PQu2csCx-71" value="animals" style="rounded=0;whiteSpace=wrap;html=1;" vertex="1" parent="1">
          <mxGeometry x="150" y="1520" width="120" height="60" as="geometry" />
        </mxCell>
        <mxCell id="PZf5R8o61nO2PQu2csCx-72" value="" style="endArrow=classic;html=1;rounded=0;exitX=0.5;exitY=1;exitDx=0;exitDy=0;entryX=0.5;entryY=0;entryDx=0;entryDy=0;" edge="1" parent="1" source="PZf5R8o61nO2PQu2csCx-70" target="PZf5R8o61nO2PQu2csCx-71">
          <mxGeometry width="50" height="50" relative="1" as="geometry">
            <mxPoint x="230" y="1540" as="sourcePoint" />
            <mxPoint x="280" y="1490" as="targetPoint" />
          </mxGeometry>
        </mxCell>
        <mxCell id="PZf5R8o61nO2PQu2csCx-73" value="animals[0]" style="rounded=0;whiteSpace=wrap;html=1;" vertex="1" parent="1">
          <mxGeometry x="90" y="1610" width="60" height="60" as="geometry" />
        </mxCell>
        <mxCell id="PZf5R8o61nO2PQu2csCx-74" value="animals[0]" style="rounded=0;whiteSpace=wrap;html=1;" vertex="1" parent="1">
          <mxGeometry x="180" y="1610" width="60" height="60" as="geometry" />
        </mxCell>
        <mxCell id="PZf5R8o61nO2PQu2csCx-75" value="animals[0]" style="rounded=0;whiteSpace=wrap;html=1;" vertex="1" parent="1">
          <mxGeometry x="270" y="1610" width="60" height="60" as="geometry" />
        </mxCell>
        <mxCell id="PZf5R8o61nO2PQu2csCx-76" value="" style="endArrow=classic;html=1;rounded=0;exitX=0;exitY=1;exitDx=0;exitDy=0;entryX=0.5;entryY=0;entryDx=0;entryDy=0;" edge="1" parent="1" source="PZf5R8o61nO2PQu2csCx-71" target="PZf5R8o61nO2PQu2csCx-73">
          <mxGeometry width="50" height="50" relative="1" as="geometry">
            <mxPoint x="60" y="1610" as="sourcePoint" />
            <mxPoint x="110" y="1560" as="targetPoint" />
          </mxGeometry>
        </mxCell>
        <mxCell id="PZf5R8o61nO2PQu2csCx-77" value="" style="endArrow=classic;html=1;rounded=0;entryX=0.5;entryY=0;entryDx=0;entryDy=0;exitX=0.5;exitY=1;exitDx=0;exitDy=0;" edge="1" parent="1" source="PZf5R8o61nO2PQu2csCx-71" target="PZf5R8o61nO2PQu2csCx-74">
          <mxGeometry width="50" height="50" relative="1" as="geometry">
            <mxPoint x="160" y="1590" as="sourcePoint" />
            <mxPoint x="130" y="1620" as="targetPoint" />
          </mxGeometry>
        </mxCell>
        <mxCell id="PZf5R8o61nO2PQu2csCx-78" value="" style="endArrow=classic;html=1;rounded=0;exitX=1;exitY=1;exitDx=0;exitDy=0;entryX=0.5;entryY=0;entryDx=0;entryDy=0;" edge="1" parent="1" source="PZf5R8o61nO2PQu2csCx-71" target="PZf5R8o61nO2PQu2csCx-75">
          <mxGeometry width="50" height="50" relative="1" as="geometry">
            <mxPoint x="170" y="1600" as="sourcePoint" />
            <mxPoint x="140" y="1630" as="targetPoint" />
          </mxGeometry>
        </mxCell>
        <mxCell id="PZf5R8o61nO2PQu2csCx-79" value="" style="endArrow=classic;html=1;rounded=0;exitX=0.5;exitY=1;exitDx=0;exitDy=0;" edge="1" parent="1" source="PZf5R8o61nO2PQu2csCx-73">
          <mxGeometry width="50" height="50" relative="1" as="geometry">
            <mxPoint x="130" y="1790" as="sourcePoint" />
            <mxPoint x="120" y="1710" as="targetPoint" />
          </mxGeometry>
        </mxCell>
        <mxCell id="PZf5R8o61nO2PQu2csCx-80" value="dog" style="rounded=0;whiteSpace=wrap;html=1;" vertex="1" parent="1">
          <mxGeometry x="90" y="1710" width="60" height="60" as="geometry" />
        </mxCell>
        <mxCell id="PZf5R8o61nO2PQu2csCx-81" value="mouse" style="rounded=0;whiteSpace=wrap;html=1;" vertex="1" parent="1">
          <mxGeometry x="270" y="1710" width="60" height="60" as="geometry" />
        </mxCell>
        <mxCell id="PZf5R8o61nO2PQu2csCx-82" value="" style="endArrow=classic;html=1;rounded=0;exitX=0.5;exitY=1;exitDx=0;exitDy=0;" edge="1" parent="1">
          <mxGeometry width="50" height="50" relative="1" as="geometry">
            <mxPoint x="210" y="1670" as="sourcePoint" />
            <mxPoint x="210" y="1710" as="targetPoint" />
          </mxGeometry>
        </mxCell>
        <mxCell id="PZf5R8o61nO2PQu2csCx-83" value="cat" style="rounded=0;whiteSpace=wrap;html=1;" vertex="1" parent="1">
          <mxGeometry x="180" y="1710" width="60" height="60" as="geometry" />
        </mxCell>
        <mxCell id="PZf5R8o61nO2PQu2csCx-84" value="" style="endArrow=classic;html=1;rounded=0;exitX=0.5;exitY=1;exitDx=0;exitDy=0;entryX=0.5;entryY=0;entryDx=0;entryDy=0;" edge="1" parent="1" source="PZf5R8o61nO2PQu2csCx-75" target="PZf5R8o61nO2PQu2csCx-81">
          <mxGeometry width="50" height="50" relative="1" as="geometry">
            <mxPoint x="390" y="1730" as="sourcePoint" />
            <mxPoint x="440" y="1680" as="targetPoint" />
          </mxGeometry>
        </mxCell>
        <mxCell id="PZf5R8o61nO2PQu2csCx-85" value="" style="endArrow=classic;html=1;rounded=0;exitX=0.5;exitY=1;exitDx=0;exitDy=0;" edge="1" parent="1">
          <mxGeometry width="50" height="50" relative="1" as="geometry">
            <mxPoint x="120" y="1770" as="sourcePoint" />
            <mxPoint x="120" y="1810" as="targetPoint" />
          </mxGeometry>
        </mxCell>
        <mxCell id="PZf5R8o61nO2PQu2csCx-86" value="name" style="rounded=0;whiteSpace=wrap;html=1;" vertex="1" parent="1">
          <mxGeometry x="90" y="1810" width="60" height="60" as="geometry" />
        </mxCell>
        <mxCell id="PZf5R8o61nO2PQu2csCx-87" value="name" style="rounded=0;whiteSpace=wrap;html=1;" vertex="1" parent="1">
          <mxGeometry x="270" y="1810" width="60" height="60" as="geometry" />
        </mxCell>
        <mxCell id="PZf5R8o61nO2PQu2csCx-88" value="" style="endArrow=classic;html=1;rounded=0;exitX=0.5;exitY=1;exitDx=0;exitDy=0;" edge="1" parent="1">
          <mxGeometry width="50" height="50" relative="1" as="geometry">
            <mxPoint x="210" y="1770" as="sourcePoint" />
            <mxPoint x="210" y="1810" as="targetPoint" />
          </mxGeometry>
        </mxCell>
        <mxCell id="PZf5R8o61nO2PQu2csCx-89" value="name" style="rounded=0;whiteSpace=wrap;html=1;" vertex="1" parent="1">
          <mxGeometry x="180" y="1810" width="60" height="60" as="geometry" />
        </mxCell>
        <mxCell id="PZf5R8o61nO2PQu2csCx-90" value="" style="endArrow=classic;html=1;rounded=0;exitX=0.5;exitY=1;exitDx=0;exitDy=0;entryX=0.5;entryY=0;entryDx=0;entryDy=0;" edge="1" parent="1" target="PZf5R8o61nO2PQu2csCx-87">
          <mxGeometry width="50" height="50" relative="1" as="geometry">
            <mxPoint x="300" y="1770" as="sourcePoint" />
            <mxPoint x="440" y="1780" as="targetPoint" />
          </mxGeometry>
        </mxCell>
        <mxCell id="PZf5R8o61nO2PQu2csCx-91" value="" style="endArrow=classic;html=1;rounded=0;exitX=0.5;exitY=1;exitDx=0;exitDy=0;" edge="1" parent="1">
          <mxGeometry width="50" height="50" relative="1" as="geometry">
            <mxPoint x="120" y="1870" as="sourcePoint" />
            <mxPoint x="120" y="1910" as="targetPoint" />
          </mxGeometry>
        </mxCell>
        <mxCell id="PZf5R8o61nO2PQu2csCx-92" value="str buffer dog" style="rounded=0;whiteSpace=wrap;html=1;" vertex="1" parent="1">
          <mxGeometry x="90" y="1910" width="60" height="60" as="geometry" />
        </mxCell>
        <mxCell id="PZf5R8o61nO2PQu2csCx-93" value="str buffer mouse" style="rounded=0;whiteSpace=wrap;html=1;" vertex="1" parent="1">
          <mxGeometry x="270" y="1910" width="60" height="60" as="geometry" />
        </mxCell>
        <mxCell id="PZf5R8o61nO2PQu2csCx-94" value="" style="endArrow=classic;html=1;rounded=0;exitX=0.5;exitY=1;exitDx=0;exitDy=0;" edge="1" parent="1">
          <mxGeometry width="50" height="50" relative="1" as="geometry">
            <mxPoint x="210" y="1870" as="sourcePoint" />
            <mxPoint x="210" y="1910" as="targetPoint" />
          </mxGeometry>
        </mxCell>
        <mxCell id="PZf5R8o61nO2PQu2csCx-95" value="str buffer cat" style="rounded=0;whiteSpace=wrap;html=1;" vertex="1" parent="1">
          <mxGeometry x="180" y="1910" width="60" height="60" as="geometry" />
        </mxCell>
        <mxCell id="PZf5R8o61nO2PQu2csCx-96" value="" style="endArrow=classic;html=1;rounded=0;exitX=0.5;exitY=1;exitDx=0;exitDy=0;entryX=0.5;entryY=0;entryDx=0;entryDy=0;" edge="1" parent="1" target="PZf5R8o61nO2PQu2csCx-93">
          <mxGeometry width="50" height="50" relative="1" as="geometry">
            <mxPoint x="300" y="1870" as="sourcePoint" />
            <mxPoint x="440" y="1880" as="targetPoint" />
          </mxGeometry>
        </mxCell>
        <mxCell id="PZf5R8o61nO2PQu2csCx-97" value="display_animals" style="rounded=1;whiteSpace=wrap;html=1;" vertex="1" parent="1">
          <mxGeometry x="420" y="1420" width="120" height="60" as="geometry" />
        </mxCell>
        <mxCell id="PZf5R8o61nO2PQu2csCx-98" value="animals" style="rounded=0;whiteSpace=wrap;html=1;" vertex="1" parent="1">
          <mxGeometry x="420" y="1520" width="120" height="60" as="geometry" />
        </mxCell>
        <mxCell id="PZf5R8o61nO2PQu2csCx-99" value="" style="endArrow=classic;html=1;rounded=0;exitX=0.5;exitY=1;exitDx=0;exitDy=0;entryX=0.5;entryY=0;entryDx=0;entryDy=0;" edge="1" parent="1" target="PZf5R8o61nO2PQu2csCx-98">
          <mxGeometry width="50" height="50" relative="1" as="geometry">
            <mxPoint x="480" y="1480" as="sourcePoint" />
            <mxPoint x="550" y="1490" as="targetPoint" />
          </mxGeometry>
        </mxCell>
        <mxCell id="PZf5R8o61nO2PQu2csCx-100" value="animals[0]" style="rounded=0;whiteSpace=wrap;html=1;" vertex="1" parent="1">
          <mxGeometry x="360" y="1610" width="60" height="60" as="geometry" />
        </mxCell>
        <mxCell id="PZf5R8o61nO2PQu2csCx-101" value="animals[0]" style="rounded=0;whiteSpace=wrap;html=1;" vertex="1" parent="1">
          <mxGeometry x="450" y="1610" width="60" height="60" as="geometry" />
        </mxCell>
        <mxCell id="PZf5R8o61nO2PQu2csCx-102" value="animals[0]" style="rounded=0;whiteSpace=wrap;html=1;" vertex="1" parent="1">
          <mxGeometry x="540" y="1610" width="60" height="60" as="geometry" />
        </mxCell>
        <mxCell id="PZf5R8o61nO2PQu2csCx-103" value="" style="endArrow=classic;html=1;rounded=0;exitX=0;exitY=1;exitDx=0;exitDy=0;entryX=0.5;entryY=0;entryDx=0;entryDy=0;" edge="1" parent="1" source="PZf5R8o61nO2PQu2csCx-98" target="PZf5R8o61nO2PQu2csCx-100">
          <mxGeometry width="50" height="50" relative="1" as="geometry">
            <mxPoint x="330" y="1610" as="sourcePoint" />
            <mxPoint x="380" y="1560" as="targetPoint" />
          </mxGeometry>
        </mxCell>
        <mxCell id="PZf5R8o61nO2PQu2csCx-104" value="" style="endArrow=classic;html=1;rounded=0;entryX=0.5;entryY=0;entryDx=0;entryDy=0;exitX=0.5;exitY=1;exitDx=0;exitDy=0;" edge="1" parent="1" source="PZf5R8o61nO2PQu2csCx-98" target="PZf5R8o61nO2PQu2csCx-101">
          <mxGeometry width="50" height="50" relative="1" as="geometry">
            <mxPoint x="430" y="1590" as="sourcePoint" />
            <mxPoint x="400" y="1620" as="targetPoint" />
          </mxGeometry>
        </mxCell>
        <mxCell id="PZf5R8o61nO2PQu2csCx-105" value="" style="endArrow=classic;html=1;rounded=0;exitX=1;exitY=1;exitDx=0;exitDy=0;entryX=0.5;entryY=0;entryDx=0;entryDy=0;" edge="1" parent="1" source="PZf5R8o61nO2PQu2csCx-98" target="PZf5R8o61nO2PQu2csCx-102">
          <mxGeometry width="50" height="50" relative="1" as="geometry">
            <mxPoint x="440" y="1600" as="sourcePoint" />
            <mxPoint x="410" y="1630" as="targetPoint" />
          </mxGeometry>
        </mxCell>
        <mxCell id="PZf5R8o61nO2PQu2csCx-106" value="" style="endArrow=classic;html=1;rounded=0;exitX=1;exitY=0.5;exitDx=0;exitDy=0;entryX=0.5;entryY=0;entryDx=0;entryDy=0;" edge="1" parent="1" source="PZf5R8o61nO2PQu2csCx-68" target="PZf5R8o61nO2PQu2csCx-97">
          <mxGeometry width="50" height="50" relative="1" as="geometry">
            <mxPoint x="400" y="1370" as="sourcePoint" />
            <mxPoint x="450" y="1320" as="targetPoint" />
          </mxGeometry>
        </mxCell>
        <mxCell id="PZf5R8o61nO2PQu2csCx-111" value="" style="endArrow=classic;html=1;rounded=0;exitX=0.5;exitY=1;exitDx=0;exitDy=0;entryX=1;entryY=0.5;entryDx=0;entryDy=0;" edge="1" parent="1" source="PZf5R8o61nO2PQu2csCx-100" target="PZf5R8o61nO2PQu2csCx-80">
          <mxGeometry width="50" height="50" relative="1" as="geometry">
            <mxPoint x="370" y="1790" as="sourcePoint" />
            <mxPoint x="420" y="1740" as="targetPoint" />
          </mxGeometry>
        </mxCell>
        <mxCell id="PZf5R8o61nO2PQu2csCx-112" value="" style="endArrow=classic;html=1;rounded=0;exitX=0.5;exitY=1;exitDx=0;exitDy=0;entryX=1;entryY=0.5;entryDx=0;entryDy=0;" edge="1" parent="1">
          <mxGeometry width="50" height="50" relative="1" as="geometry">
            <mxPoint x="480" y="1670" as="sourcePoint" />
            <mxPoint x="240" y="1740" as="targetPoint" />
          </mxGeometry>
        </mxCell>
        <mxCell id="PZf5R8o61nO2PQu2csCx-113" value="" style="endArrow=classic;html=1;rounded=0;exitX=0.5;exitY=1;exitDx=0;exitDy=0;entryX=1;entryY=0.5;entryDx=0;entryDy=0;" edge="1" parent="1">
          <mxGeometry width="50" height="50" relative="1" as="geometry">
            <mxPoint x="570" y="1670" as="sourcePoint" />
            <mxPoint x="330" y="1740" as="targetPoint" />
          </mxGeometry>
        </mxCell>
        <mxCell id="PZf5R8o61nO2PQu2csCx-115" value="main" style="rounded=1;whiteSpace=wrap;html=1;" vertex="1" parent="1">
          <mxGeometry x="150" y="2040" width="120" height="60" as="geometry" />
        </mxCell>
        <mxCell id="PZf5R8o61nO2PQu2csCx-116" value="" style="endArrow=classic;html=1;rounded=0;exitX=0.5;exitY=1;exitDx=0;exitDy=0;" edge="1" parent="1" source="PZf5R8o61nO2PQu2csCx-115">
          <mxGeometry width="50" height="50" relative="1" as="geometry">
            <mxPoint x="230" y="2250" as="sourcePoint" />
            <mxPoint x="210" y="2180" as="targetPoint" />
          </mxGeometry>
        </mxCell>
        <mxCell id="PZf5R8o61nO2PQu2csCx-117" value="many_animals" style="rounded=0;whiteSpace=wrap;html=1;" vertex="1" parent="1">
          <mxGeometry x="150" y="2180" width="120" height="60" as="geometry" />
        </mxCell>
        <mxCell id="PZf5R8o61nO2PQu2csCx-118" value="animals" style="rounded=0;whiteSpace=wrap;html=1;" vertex="1" parent="1">
          <mxGeometry x="150" y="2280" width="120" height="60" as="geometry" />
        </mxCell>
        <mxCell id="PZf5R8o61nO2PQu2csCx-119" value="" style="endArrow=classic;html=1;rounded=0;exitX=0.5;exitY=1;exitDx=0;exitDy=0;entryX=0.5;entryY=0;entryDx=0;entryDy=0;" edge="1" parent="1" source="PZf5R8o61nO2PQu2csCx-117" target="PZf5R8o61nO2PQu2csCx-118">
          <mxGeometry width="50" height="50" relative="1" as="geometry">
            <mxPoint x="230" y="2300" as="sourcePoint" />
            <mxPoint x="280" y="2250" as="targetPoint" />
          </mxGeometry>
        </mxCell>
        <mxCell id="PZf5R8o61nO2PQu2csCx-120" value="animals[0]" style="rounded=0;whiteSpace=wrap;html=1;" vertex="1" parent="1">
          <mxGeometry x="90" y="2370" width="60" height="60" as="geometry" />
        </mxCell>
        <mxCell id="PZf5R8o61nO2PQu2csCx-121" value="animals[0]" style="rounded=0;whiteSpace=wrap;html=1;" vertex="1" parent="1">
          <mxGeometry x="180" y="2370" width="60" height="60" as="geometry" />
        </mxCell>
        <mxCell id="PZf5R8o61nO2PQu2csCx-122" value="animals[0]" style="rounded=0;whiteSpace=wrap;html=1;" vertex="1" parent="1">
          <mxGeometry x="270" y="2370" width="60" height="60" as="geometry" />
        </mxCell>
        <mxCell id="PZf5R8o61nO2PQu2csCx-123" value="" style="endArrow=classic;html=1;rounded=0;exitX=0;exitY=1;exitDx=0;exitDy=0;entryX=0.5;entryY=0;entryDx=0;entryDy=0;" edge="1" parent="1" source="PZf5R8o61nO2PQu2csCx-118" target="PZf5R8o61nO2PQu2csCx-120">
          <mxGeometry width="50" height="50" relative="1" as="geometry">
            <mxPoint x="60" y="2370" as="sourcePoint" />
            <mxPoint x="110" y="2320" as="targetPoint" />
          </mxGeometry>
        </mxCell>
        <mxCell id="PZf5R8o61nO2PQu2csCx-124" value="" style="endArrow=classic;html=1;rounded=0;entryX=0.5;entryY=0;entryDx=0;entryDy=0;exitX=0.5;exitY=1;exitDx=0;exitDy=0;" edge="1" parent="1" source="PZf5R8o61nO2PQu2csCx-118" target="PZf5R8o61nO2PQu2csCx-121">
          <mxGeometry width="50" height="50" relative="1" as="geometry">
            <mxPoint x="160" y="2350" as="sourcePoint" />
            <mxPoint x="130" y="2380" as="targetPoint" />
          </mxGeometry>
        </mxCell>
        <mxCell id="PZf5R8o61nO2PQu2csCx-125" value="" style="endArrow=classic;html=1;rounded=0;exitX=1;exitY=1;exitDx=0;exitDy=0;entryX=0.5;entryY=0;entryDx=0;entryDy=0;" edge="1" parent="1" source="PZf5R8o61nO2PQu2csCx-118" target="PZf5R8o61nO2PQu2csCx-122">
          <mxGeometry width="50" height="50" relative="1" as="geometry">
            <mxPoint x="170" y="2360" as="sourcePoint" />
            <mxPoint x="140" y="2390" as="targetPoint" />
          </mxGeometry>
        </mxCell>
        <mxCell id="PZf5R8o61nO2PQu2csCx-157" value="main" style="rounded=1;whiteSpace=wrap;html=1;" vertex="1" parent="1">
          <mxGeometry x="150" y="2480" width="120" height="60" as="geometry" />
        </mxCell>
        <mxCell id="PZf5R8o61nO2PQu2csCx-158" value="" style="endArrow=classic;html=1;rounded=0;exitX=0.5;exitY=1;exitDx=0;exitDy=0;" edge="1" parent="1" source="PZf5R8o61nO2PQu2csCx-157">
          <mxGeometry width="50" height="50" relative="1" as="geometry">
            <mxPoint x="230" y="2690" as="sourcePoint" />
            <mxPoint x="210" y="2620" as="targetPoint" />
          </mxGeometry>
        </mxCell>
        <mxCell id="PZf5R8o61nO2PQu2csCx-159" value="many_animals" style="rounded=0;whiteSpace=wrap;html=1;" vertex="1" parent="1">
          <mxGeometry x="150" y="2620" width="120" height="60" as="geometry" />
        </mxCell>
        <mxCell id="PZf5R8o61nO2PQu2csCx-160" value="animals" style="rounded=0;whiteSpace=wrap;html=1;" vertex="1" parent="1">
          <mxGeometry x="150" y="2720" width="120" height="60" as="geometry" />
        </mxCell>
        <mxCell id="PZf5R8o61nO2PQu2csCx-161" value="" style="endArrow=classic;html=1;rounded=0;exitX=0.5;exitY=1;exitDx=0;exitDy=0;entryX=0.5;entryY=0;entryDx=0;entryDy=0;" edge="1" parent="1" source="PZf5R8o61nO2PQu2csCx-159" target="PZf5R8o61nO2PQu2csCx-160">
          <mxGeometry width="50" height="50" relative="1" as="geometry">
            <mxPoint x="230" y="2740" as="sourcePoint" />
            <mxPoint x="280" y="2690" as="targetPoint" />
          </mxGeometry>
        </mxCell>
        <mxCell id="PZf5R8o61nO2PQu2csCx-162" value="animals[0]" style="rounded=0;whiteSpace=wrap;html=1;" vertex="1" parent="1">
          <mxGeometry x="90" y="2810" width="60" height="60" as="geometry" />
        </mxCell>
        <mxCell id="PZf5R8o61nO2PQu2csCx-163" value="animals[0]" style="rounded=0;whiteSpace=wrap;html=1;" vertex="1" parent="1">
          <mxGeometry x="180" y="2810" width="60" height="60" as="geometry" />
        </mxCell>
        <mxCell id="PZf5R8o61nO2PQu2csCx-164" value="animals[0]" style="rounded=0;whiteSpace=wrap;html=1;" vertex="1" parent="1">
          <mxGeometry x="270" y="2810" width="60" height="60" as="geometry" />
        </mxCell>
        <mxCell id="PZf5R8o61nO2PQu2csCx-165" value="" style="endArrow=classic;html=1;rounded=0;exitX=0;exitY=1;exitDx=0;exitDy=0;entryX=0.5;entryY=0;entryDx=0;entryDy=0;" edge="1" parent="1" source="PZf5R8o61nO2PQu2csCx-160" target="PZf5R8o61nO2PQu2csCx-162">
          <mxGeometry width="50" height="50" relative="1" as="geometry">
            <mxPoint x="60" y="2810" as="sourcePoint" />
            <mxPoint x="110" y="2760" as="targetPoint" />
          </mxGeometry>
        </mxCell>
        <mxCell id="PZf5R8o61nO2PQu2csCx-166" value="" style="endArrow=classic;html=1;rounded=0;entryX=0.5;entryY=0;entryDx=0;entryDy=0;exitX=0.5;exitY=1;exitDx=0;exitDy=0;" edge="1" parent="1" source="PZf5R8o61nO2PQu2csCx-160" target="PZf5R8o61nO2PQu2csCx-163">
          <mxGeometry width="50" height="50" relative="1" as="geometry">
            <mxPoint x="160" y="2790" as="sourcePoint" />
            <mxPoint x="130" y="2820" as="targetPoint" />
          </mxGeometry>
        </mxCell>
        <mxCell id="PZf5R8o61nO2PQu2csCx-167" value="" style="endArrow=classic;html=1;rounded=0;exitX=1;exitY=1;exitDx=0;exitDy=0;entryX=0.5;entryY=0;entryDx=0;entryDy=0;" edge="1" parent="1" source="PZf5R8o61nO2PQu2csCx-160" target="PZf5R8o61nO2PQu2csCx-164">
          <mxGeometry width="50" height="50" relative="1" as="geometry">
            <mxPoint x="170" y="2800" as="sourcePoint" />
            <mxPoint x="140" y="2830" as="targetPoint" />
          </mxGeometry>
        </mxCell>
        <mxCell id="PZf5R8o61nO2PQu2csCx-168" value="" style="endArrow=classic;html=1;rounded=0;exitX=0.5;exitY=1;exitDx=0;exitDy=0;" edge="1" parent="1" source="PZf5R8o61nO2PQu2csCx-162">
          <mxGeometry width="50" height="50" relative="1" as="geometry">
            <mxPoint x="130" y="2990" as="sourcePoint" />
            <mxPoint x="120" y="2910" as="targetPoint" />
          </mxGeometry>
        </mxCell>
        <mxCell id="PZf5R8o61nO2PQu2csCx-169" value="dog" style="rounded=0;whiteSpace=wrap;html=1;" vertex="1" parent="1">
          <mxGeometry x="90" y="2910" width="60" height="60" as="geometry" />
        </mxCell>
        <mxCell id="PZf5R8o61nO2PQu2csCx-170" value="mouse" style="rounded=0;whiteSpace=wrap;html=1;" vertex="1" parent="1">
          <mxGeometry x="270" y="2910" width="60" height="60" as="geometry" />
        </mxCell>
        <mxCell id="PZf5R8o61nO2PQu2csCx-171" value="" style="endArrow=classic;html=1;rounded=0;exitX=0.5;exitY=1;exitDx=0;exitDy=0;" edge="1" parent="1">
          <mxGeometry width="50" height="50" relative="1" as="geometry">
            <mxPoint x="210" y="2870" as="sourcePoint" />
            <mxPoint x="210" y="2910" as="targetPoint" />
          </mxGeometry>
        </mxCell>
        <mxCell id="PZf5R8o61nO2PQu2csCx-172" value="cat" style="rounded=0;whiteSpace=wrap;html=1;" vertex="1" parent="1">
          <mxGeometry x="180" y="2910" width="60" height="60" as="geometry" />
        </mxCell>
        <mxCell id="PZf5R8o61nO2PQu2csCx-173" value="" style="endArrow=classic;html=1;rounded=0;exitX=0.5;exitY=1;exitDx=0;exitDy=0;entryX=0.5;entryY=0;entryDx=0;entryDy=0;" edge="1" parent="1" source="PZf5R8o61nO2PQu2csCx-164" target="PZf5R8o61nO2PQu2csCx-170">
          <mxGeometry width="50" height="50" relative="1" as="geometry">
            <mxPoint x="390" y="2930" as="sourcePoint" />
            <mxPoint x="440" y="2880" as="targetPoint" />
          </mxGeometry>
        </mxCell>
        <mxCell id="PZf5R8o61nO2PQu2csCx-174" value="" style="endArrow=classic;html=1;rounded=0;exitX=0.5;exitY=1;exitDx=0;exitDy=0;" edge="1" parent="1">
          <mxGeometry width="50" height="50" relative="1" as="geometry">
            <mxPoint x="120" y="2970" as="sourcePoint" />
            <mxPoint x="120" y="3010" as="targetPoint" />
          </mxGeometry>
        </mxCell>
        <mxCell id="PZf5R8o61nO2PQu2csCx-175" value="name" style="rounded=0;whiteSpace=wrap;html=1;" vertex="1" parent="1">
          <mxGeometry x="90" y="3010" width="60" height="60" as="geometry" />
        </mxCell>
        <mxCell id="PZf5R8o61nO2PQu2csCx-176" value="name" style="rounded=0;whiteSpace=wrap;html=1;" vertex="1" parent="1">
          <mxGeometry x="270" y="3010" width="60" height="60" as="geometry" />
        </mxCell>
        <mxCell id="PZf5R8o61nO2PQu2csCx-177" value="" style="endArrow=classic;html=1;rounded=0;exitX=0.5;exitY=1;exitDx=0;exitDy=0;" edge="1" parent="1">
          <mxGeometry width="50" height="50" relative="1" as="geometry">
            <mxPoint x="210" y="2970" as="sourcePoint" />
            <mxPoint x="210" y="3010" as="targetPoint" />
          </mxGeometry>
        </mxCell>
        <mxCell id="PZf5R8o61nO2PQu2csCx-178" value="name" style="rounded=0;whiteSpace=wrap;html=1;" vertex="1" parent="1">
          <mxGeometry x="180" y="3010" width="60" height="60" as="geometry" />
        </mxCell>
        <mxCell id="PZf5R8o61nO2PQu2csCx-179" value="" style="endArrow=classic;html=1;rounded=0;exitX=0.5;exitY=1;exitDx=0;exitDy=0;entryX=0.5;entryY=0;entryDx=0;entryDy=0;" edge="1" parent="1" target="PZf5R8o61nO2PQu2csCx-176">
          <mxGeometry width="50" height="50" relative="1" as="geometry">
            <mxPoint x="300" y="2970" as="sourcePoint" />
            <mxPoint x="440" y="2980" as="targetPoint" />
          </mxGeometry>
        </mxCell>
        <mxCell id="PZf5R8o61nO2PQu2csCx-180" value="" style="endArrow=classic;html=1;rounded=0;exitX=0.5;exitY=1;exitDx=0;exitDy=0;" edge="1" parent="1">
          <mxGeometry width="50" height="50" relative="1" as="geometry">
            <mxPoint x="120" y="3070" as="sourcePoint" />
            <mxPoint x="120" y="3110" as="targetPoint" />
          </mxGeometry>
        </mxCell>
        <mxCell id="PZf5R8o61nO2PQu2csCx-181" value="str buffer dog" style="rounded=0;whiteSpace=wrap;html=1;" vertex="1" parent="1">
          <mxGeometry x="90" y="3110" width="60" height="60" as="geometry" />
        </mxCell>
        <mxCell id="PZf5R8o61nO2PQu2csCx-182" value="str buffer mouse" style="rounded=0;whiteSpace=wrap;html=1;" vertex="1" parent="1">
          <mxGeometry x="270" y="3110" width="60" height="60" as="geometry" />
        </mxCell>
        <mxCell id="PZf5R8o61nO2PQu2csCx-183" value="" style="endArrow=classic;html=1;rounded=0;exitX=0.5;exitY=1;exitDx=0;exitDy=0;" edge="1" parent="1">
          <mxGeometry width="50" height="50" relative="1" as="geometry">
            <mxPoint x="210" y="3070" as="sourcePoint" />
            <mxPoint x="210" y="3110" as="targetPoint" />
          </mxGeometry>
        </mxCell>
        <mxCell id="PZf5R8o61nO2PQu2csCx-184" value="str buffer cat" style="rounded=0;whiteSpace=wrap;html=1;" vertex="1" parent="1">
          <mxGeometry x="180" y="3110" width="60" height="60" as="geometry" />
        </mxCell>
        <mxCell id="PZf5R8o61nO2PQu2csCx-185" value="" style="endArrow=classic;html=1;rounded=0;exitX=0.5;exitY=1;exitDx=0;exitDy=0;entryX=0.5;entryY=0;entryDx=0;entryDy=0;" edge="1" parent="1" target="PZf5R8o61nO2PQu2csCx-182">
          <mxGeometry width="50" height="50" relative="1" as="geometry">
            <mxPoint x="300" y="3070" as="sourcePoint" />
            <mxPoint x="440" y="3080" as="targetPoint" />
          </mxGeometry>
        </mxCell>
        <mxCell id="PZf5R8o61nO2PQu2csCx-186" value="display_animals" style="rounded=1;whiteSpace=wrap;html=1;" vertex="1" parent="1">
          <mxGeometry x="420" y="2620" width="120" height="60" as="geometry" />
        </mxCell>
        <mxCell id="PZf5R8o61nO2PQu2csCx-187" value="animals" style="rounded=0;whiteSpace=wrap;html=1;" vertex="1" parent="1">
          <mxGeometry x="420" y="2720" width="120" height="60" as="geometry" />
        </mxCell>
        <mxCell id="PZf5R8o61nO2PQu2csCx-195" value="" style="endArrow=classic;html=1;rounded=0;exitX=1;exitY=0.5;exitDx=0;exitDy=0;entryX=0.5;entryY=0;entryDx=0;entryDy=0;" edge="1" parent="1" source="PZf5R8o61nO2PQu2csCx-157" target="PZf5R8o61nO2PQu2csCx-186">
          <mxGeometry width="50" height="50" relative="1" as="geometry">
            <mxPoint x="400" y="2570" as="sourcePoint" />
            <mxPoint x="450" y="2520" as="targetPoint" />
          </mxGeometry>
        </mxCell>
        <mxCell id="pX7Xo_DZ8Zjl8_0Aszal-2" value="" style="endArrow=classic;html=1;rounded=0;exitX=0.5;exitY=1;exitDx=0;exitDy=0;entryX=0.5;entryY=0;entryDx=0;entryDy=0;" edge="1" parent="1" source="PZf5R8o61nO2PQu2csCx-186" target="PZf5R8o61nO2PQu2csCx-187">
          <mxGeometry width="50" height="50" relative="1" as="geometry">
            <mxPoint x="480" y="2690" as="sourcePoint" />
            <mxPoint x="500" y="2730" as="targetPoint" />
          </mxGeometry>
        </mxCell>
        <mxCell id="WbAo1VP1lCOvRW8M_t9X-1" value="" style="endArrow=none;dashed=1;html=1;rounded=0;exitX=1;exitY=0.5;exitDx=0;exitDy=0;entryX=0;entryY=0.5;entryDx=0;entryDy=0;" edge="1" parent="1" source="PZf5R8o61nO2PQu2csCx-160" target="PZf5R8o61nO2PQu2csCx-187">
          <mxGeometry width="50" height="50" relative="1" as="geometry">
            <mxPoint x="310" y="2800" as="sourcePoint" />
            <mxPoint x="360" y="2750" as="targetPoint" />
          </mxGeometry>
        </mxCell>
      </root>
    </mxGraphModel>
  </diagram>
</mxfile>
